<svg height="77.381" viewBox="0 0 67.008 77.381" width="67.008" xmlns="http://www.w3.org/2000/svg">
    <g id="noun-cash-7152534" transform="translate(-16.5 -11.311)">
        <path d="M81.938,23.312H80L77.594,12.531a1.563,1.563,0,0,0-1.863-1.184L22.059,23.312h-4A1.562,1.562,0,0,0,16.5,24.875V57.813a1.562,1.562,0,0,0,1.563,1.563h10.82v3.949a12.652,12.652,0,0,0,3.059,8.281c.027.035.055.066.074.094a9.611,9.611,0,0,1,2.3,6.242v.465h-.133a1.562,1.562,0,0,0-1.562,1.563v7.16a1.563,1.563,0,0,0,3.125,0v-5.6h.113c.008,0,.016,0,.023,0s.016,0,.023,0H61.215v5.6a1.562,1.562,0,1,0,3.125,0v-7.16a1.549,1.549,0,0,0-1.43-1.535V71.575a5.024,5.024,0,0,1,1.231-3.293l2.777-3.207a8.152,8.152,0,0,0,2-5.34v-.359H81.945a1.562,1.562,0,0,0,1.563-1.562L83.5,24.875a1.562,1.562,0,0,0-1.562-1.562Zm-7.051-8.578L76.8,23.312H75.5l-.227-1a1.558,1.558,0,0,0-1.867-1.184,3.082,3.082,0,0,1-3.684-2.336,1.569,1.569,0,0,0-1.863-1.18l-25.6,5.707h-5.84Zm-5.535,8.578H56.625l10.586-2.359a6.2,6.2,0,0,0,2.141,2.359Zm-4.8,39.715L61.77,66.234a8.149,8.149,0,0,0-1.992,5.34v6.832H37.446v-.465A12.767,12.767,0,0,0,34.4,69.687a1.531,1.531,0,0,0-.1-.125,9.537,9.537,0,0,1-2.3-6.238V59.375H55.067l-.043.035A7.672,7.672,0,0,0,52.2,65.375v4.5a1.563,1.563,0,0,0,3.125,0v-4.5A4.56,4.56,0,0,1,57,61.832l4.313-3.523a1.565,1.565,0,0,0,.574-1.211V53s0-.012,0-.016,0-.012,0-.016V49.156a1.919,1.919,0,0,1,.574-1.379,1.983,1.983,0,0,1,1.563-.551,2.1,2.1,0,0,1,1.754,2.141V59.734a5,5,0,0,1-1.227,3.293Zm-.246-18.914a5.066,5.066,0,0,0-5.543,5.043v2.266H29.473a6.714,6.714,0,0,0-5-5.238V36.218a6.714,6.714,0,0,0,4.941-4.941h41.18a6.714,6.714,0,0,0,4.941,4.941v9.965a6.709,6.709,0,0,0-5,5.238H68.911V49.367a5.216,5.216,0,0,0-4.605-5.254ZM80.375,56.25H68.906v-1.7H72a1.6,1.6,0,0,0,1.172-.578,1.642,1.642,0,0,0,.359-1.281,3.566,3.566,0,0,1,3.563-3.562,1.562,1.562,0,0,0,1.563-1.562V34.844a1.562,1.562,0,0,0-1.562-1.562,3.566,3.566,0,0,1-3.562-3.563,1.562,1.562,0,0,0-1.562-1.562H28.031a1.562,1.562,0,0,0-1.562,1.563,3.566,3.566,0,0,1-3.562,3.563,1.562,1.562,0,0,0-1.562,1.563V47.563a1.562,1.562,0,0,0,1.563,1.563,3.559,3.559,0,0,1,3.547,3.633A1.56,1.56,0,0,0,28,54.547H58.761v1.7H19.624V26.438h60.75Z" data-name="Path 74571"
            id="Path_74571" />
        <path d="M50,34.543a6.8,6.8,0,1,0,6.8,6.8A6.813,6.813,0,0,0,50,34.543Zm0,10.484a3.68,3.68,0,1,1,3.68-3.68A3.683,3.683,0,0,1,50,45.027Z" data-name="Path 74572"
            id="Path_74572" />
        <path d="M35.023,39.785H32.652a1.563,1.563,0,0,0,0,3.125h2.371a1.563,1.563,0,0,0,0-3.125Z" data-name="Path 74573"
            id="Path_74573" />
        <path d="M67.344,39.785H64.973a1.563,1.563,0,0,0,0,3.125h2.371a1.563,1.563,0,0,0,0-3.125Z" data-name="Path 74574"
            id="Path_74574" />
    </g>
</svg>
