<svg xmlns="http://www.w3.org/2000/svg" width="28.705" height="28.567" viewBox="0 0 28.705 28.567">
  <g id="Group_64908" data-name="Group 64908" transform="translate(-0.75 -0.295)">
    <path id="Path_74592" data-name="Path 74592" d="M6.755,8A4.019,4.019,0,0,0,2.747,12v8.961a4.019,4.019,0,0,0,4.008,4.008H22.04a4.019,4.019,0,0,0,4.008-4.008V20.38H24.517a3.837,3.837,0,0,1-3.871-3.4,3.742,3.742,0,0,1,3.711-4.057h1.691V12A4.019,4.019,0,0,0,22.04,8ZM.75,12a6.016,6.016,0,0,1,6-6H22.04a6.016,6.016,0,0,1,6,6v1.917a1,1,0,0,1-1,1h-2.69a1.655,1.655,0,0,0-1.2.5l-.018.018a1.676,1.676,0,0,0-.5,1.361v.012h0a1.843,1.843,0,0,0,1.881,1.574h2.53a1,1,0,0,1,1,1v1.584a6.016,6.016,0,0,1-6,6H6.755a6.016,6.016,0,0,1-6-6Z" transform="translate(0 1.891)" fill="#3a3a3a" fill-rule="evenodd"/>
    <path id="Path_74593" data-name="Path 74593" d="M17.194,3.83a1.532,1.532,0,0,0-2.069-1.436L4.552,6.388a2.794,2.794,0,0,0-1.8,2.621v6.085a1,1,0,0,1-2,0V9.01a4.79,4.79,0,0,1,3.1-4.489L14.417.526h0a3.529,3.529,0,0,1,4.774,3.3V8.89a1,1,0,1,1-2,0Z" transform="translate(0 0)" fill="#3a3a3a" fill-rule="evenodd"/>
    <path id="Path_74594" data-name="Path 74594" d="M19.407,13.2a1.655,1.655,0,0,0-1.2.5l-.018.018a1.676,1.676,0,0,0-.5,1.361v.012h0a1.842,1.842,0,0,0,1.881,1.574h2.587a.368.368,0,0,0,.356-.359V13.557a.368.368,0,0,0-.356-.359Zm-2.624-.906A3.652,3.652,0,0,1,19.407,11.2h2.805a2.365,2.365,0,0,1,2.294,2.356V16.3a2.366,2.366,0,0,1-2.294,2.356H19.566a3.837,3.837,0,0,1-3.871-3.4A3.673,3.673,0,0,1,16.783,12.292Z" transform="translate(4.949 3.615)" fill="#3a3a3a" fill-rule="evenodd"/>
    <path id="Path_74595" data-name="Path 74595" d="M5.25,11.249a1,1,0,0,1,1-1h9.32a1,1,0,0,1,0,2H6.249A1,1,0,0,1,5.25,11.249Z" transform="translate(1.492 3.3)" fill="#3a3a3a" fill-rule="evenodd"/>
  </g>
</svg>
